#define volume0_width 14
#define volume0_height 9
static unsigned char volume0_bits[] = {
   0x10, 0x00, 0x18, 0x00, 0x3c, 0x02, 0x5f, 0x01, 0x9f, 0x00, 0x5f, 0x01,
   0x3c, 0x02, 0x18, 0x00, 0x10, 0x00 };
